<svg width="102" height="49" viewBox="0 0 102 49" fill="none" xmlns="http://www.w3.org/2000/svg">
<path d="M66.728 20.0433H64.0646C64.0291 19.7699 63.9563 19.5231 63.8462 19.3029C63.7362 19.0827 63.5906 18.8945 63.4094 18.7383C63.2283 18.582 63.0135 18.4631 62.7649 18.3814C62.5199 18.2962 62.2482 18.2536 61.9499 18.2536C61.4208 18.2536 60.9645 18.3832 60.581 18.6424C60.201 18.9016 59.908 19.2763 59.7021 19.7663C59.4996 20.2564 59.3984 20.8494 59.3984 21.5455C59.3984 22.2699 59.5014 22.8771 59.7074 23.3672C59.9169 23.8537 60.2099 24.2212 60.5863 24.4698C60.9663 24.7148 61.4155 24.8374 61.9339 24.8374C62.2251 24.8374 62.4897 24.8001 62.7276 24.7255C62.9691 24.6509 63.1804 24.5426 63.3615 24.4006C63.5462 24.255 63.6971 24.0792 63.8143 23.8732C63.935 23.6637 64.0185 23.4276 64.0646 23.1648L66.728 23.1808C66.6818 23.6637 66.5415 24.1396 66.3072 24.6083C66.0763 25.0771 65.7585 25.505 65.3537 25.892C64.9489 26.2756 64.4553 26.581 63.8729 26.8082C63.294 27.0355 62.63 27.1491 61.8807 27.1491C60.8935 27.1491 60.0092 26.9325 59.228 26.4993C58.4503 26.0625 57.8359 25.4268 57.3849 24.5923C56.9339 23.7578 56.7085 22.7422 56.7085 21.5455C56.7085 20.3452 56.9375 19.3278 57.3956 18.4933C57.8537 17.6587 58.4734 17.0249 59.2546 16.5916C60.0359 16.1584 60.9112 15.9418 61.8807 15.9418C62.5412 15.9418 63.152 16.0341 63.7131 16.2188C64.2741 16.3999 64.7678 16.6662 65.1939 17.0178C65.62 17.3658 65.9663 17.7937 66.2326 18.3015C66.4989 18.8093 66.6641 19.3899 66.728 20.0433ZM72.056 27.1545C71.1966 27.1545 70.458 26.9787 69.8401 26.6271C69.2258 26.272 68.7517 25.7784 68.4179 25.1463C68.0876 24.5107 67.9225 23.7738 67.9225 22.9357C67.9225 22.0941 68.0876 21.3572 68.4179 20.7251C68.7517 20.0895 69.2258 19.5959 69.8401 19.2443C70.458 18.8892 71.1966 18.7116 72.056 18.7116C72.9154 18.7116 73.6523 18.8892 74.2666 19.2443C74.8845 19.5959 75.3586 20.0895 75.6888 20.7251C76.0226 21.3572 76.1895 22.0941 76.1895 22.9357C76.1895 23.7738 76.0226 24.5107 75.6888 25.1463C75.3586 25.7784 74.8845 26.272 74.2666 26.6271C73.6523 26.9787 72.9154 27.1545 72.056 27.1545ZM72.072 25.1889C72.3845 25.1889 72.6491 25.093 72.8657 24.9013C73.0823 24.7095 73.2474 24.4432 73.3611 24.1023C73.4782 23.7614 73.5368 23.3672 73.5368 22.9197C73.5368 22.4652 73.4782 22.0675 73.3611 21.7266C73.2474 21.3857 73.0823 21.1193 72.8657 20.9276C72.6491 20.7358 72.3845 20.6399 72.072 20.6399C71.7488 20.6399 71.4754 20.7358 71.2517 20.9276C71.0315 21.1193 70.8628 21.3857 70.7456 21.7266C70.632 22.0675 70.5752 22.4652 70.5752 22.9197C70.5752 23.3672 70.632 23.7614 70.7456 24.1023C70.8628 24.4432 71.0315 24.7095 71.2517 24.9013C71.4754 25.093 71.7488 25.1889 72.072 25.1889ZM80.5122 27.1172C79.9085 27.1172 79.3598 26.9609 78.8662 26.6484C78.3726 26.3359 77.9784 25.8672 77.6837 25.2422C77.3889 24.6172 77.2416 23.8413 77.2416 22.9144C77.2416 21.9521 77.3943 21.1602 77.6997 20.5387C78.0051 19.9173 78.4046 19.4574 78.8982 19.1591C79.3953 18.8608 79.9298 18.7116 80.5015 18.7116C80.9312 18.7116 81.2987 18.7862 81.6041 18.9354C81.9095 19.081 82.1617 19.2692 82.3605 19.5C82.5594 19.7308 82.7103 19.9705 82.8133 20.2191H82.8666V16.0909H85.4713V27H82.8932V25.6737H82.8133C82.7032 25.9258 82.547 26.1619 82.3445 26.3821C82.1421 26.6023 81.8882 26.7798 81.5828 26.9148C81.281 27.0497 80.9241 27.1172 80.5122 27.1172ZM81.4177 25.0877C81.7338 25.0877 82.0036 24.9989 82.2274 24.8214C82.4511 24.6403 82.6233 24.3864 82.7441 24.0597C82.8648 23.733 82.9252 23.3494 82.9252 22.9091C82.9252 22.4616 82.8648 22.0763 82.7441 21.7532C82.6269 21.43 82.4546 21.1815 82.2274 21.0075C82.0036 20.8335 81.7338 20.7464 81.4177 20.7464C81.0945 20.7464 80.8211 20.8352 80.5974 21.0128C80.3737 21.1903 80.2032 21.4407 80.086 21.7638C79.9724 22.087 79.9156 22.4687 79.9156 22.9091C79.9156 23.3494 79.9742 23.733 80.0914 24.0597C80.2085 24.3864 80.3772 24.6403 80.5974 24.8214C80.8211 24.9989 81.0945 25.0877 81.4177 25.0877ZM90.9432 27.1545C90.0874 27.1545 89.3487 26.9858 88.7273 26.6484C88.1094 26.3075 87.6335 25.8228 87.2997 25.1942C86.9695 24.5621 86.8043 23.8111 86.8043 22.9411C86.8043 22.0959 86.9712 21.3572 87.305 20.7251C87.6388 20.0895 88.1094 19.5959 88.7166 19.2443C89.3239 18.8892 90.0394 18.7116 90.8633 18.7116C91.4457 18.7116 91.9783 18.8022 92.4613 18.9833C92.9442 19.1644 93.3615 19.4325 93.7131 19.7876C94.0646 20.1428 94.3381 20.5813 94.5334 21.1033C94.7287 21.6218 94.8263 22.2166 94.8263 22.8878V23.5376H87.7152V22.0249H92.4027C92.3991 21.7479 92.3335 21.5011 92.2056 21.2844C92.0778 21.0678 91.902 20.8991 91.6783 20.7784C91.4581 20.6541 91.2042 20.592 90.9165 20.592C90.6254 20.592 90.3643 20.6577 90.1335 20.7891C89.9027 20.9169 89.7198 21.0927 89.5849 21.3164C89.4499 21.5366 89.3789 21.7869 89.3718 22.0675V23.6069C89.3718 23.9407 89.4375 24.2337 89.5689 24.4858C89.7003 24.7344 89.8867 24.9279 90.1282 25.0664C90.3697 25.2049 90.6573 25.2741 90.9911 25.2741C91.2219 25.2741 91.4315 25.2422 91.6197 25.1783C91.8079 25.1143 91.9695 25.0202 92.1044 24.896C92.2393 24.7717 92.3406 24.619 92.408 24.4379L94.7997 24.5071C94.7003 25.0433 94.4819 25.5103 94.1445 25.908C93.8107 26.3022 93.3722 26.6094 92.8288 26.8295C92.2855 27.0462 91.657 27.1545 90.9432 27.1545Z" fill="url(#paint0_linear_12502_1592)"/>
<path d="M0 12.403H2.90834V26.2362H0V12.403Z" fill="#29292E"/>
<path d="M14.6868 21.2585C14.6868 21.2958 14.6681 21.5568 14.6308 22.0415H7.04305C7.17977 22.6629 7.50292 23.1539 8.0125 23.5143C8.52208 23.8747 9.15595 24.055 9.91411 24.055C10.4361 24.055 10.896 23.9804 11.2937 23.8312C11.7039 23.6697 12.0829 23.4211 12.4309 23.0855L13.9783 24.7634C13.0337 25.8447 11.6541 26.3854 9.83953 26.3854C8.70851 26.3854 7.70799 26.1679 6.83798 25.7328C5.96796 25.2854 5.29681 24.6702 4.82451 23.8872C4.35222 23.1042 4.11607 22.2155 4.11607 21.2212C4.11607 20.2393 4.346 19.3569 4.80587 18.5739C5.27816 17.7784 5.91825 17.1632 6.72612 16.7282C7.54642 16.2807 8.45994 16.057 9.46667 16.057C10.4485 16.057 11.3372 16.2683 12.1326 16.6909C12.9281 17.1135 13.5495 17.7225 13.997 18.5179C14.4568 19.3009 14.6868 20.2145 14.6868 21.2585ZM9.48531 18.2569C8.82659 18.2569 8.27351 18.4434 7.82607 18.8162C7.37863 19.1891 7.1052 19.6987 7.00577 20.345H11.9462C11.8468 19.7111 11.5734 19.2077 11.1259 18.8349C10.6785 18.4496 10.1316 18.2569 9.48531 18.2569Z" fill="#29292E"/>
<path d="M22.3465 25.7515C22.0606 25.9628 21.7064 26.1244 21.2838 26.2362C20.8737 26.3356 20.4387 26.3854 19.9788 26.3854C18.7857 26.3854 17.8597 26.0809 17.201 25.4718C16.5547 24.8628 16.2315 23.968 16.2315 22.7872V18.6671H14.6841V16.4299H16.2315V13.9876H19.1399V16.4299H21.6381V18.6671H19.1399V22.7499C19.1399 23.1725 19.2455 23.5019 19.4568 23.738C19.6805 23.9617 19.9912 24.0736 20.389 24.0736C20.8488 24.0736 21.2403 23.9493 21.5635 23.7007L22.3465 25.7515Z" fill="#29292E"/>
<path d="M36.0785 16.057C37.3338 16.057 38.3282 16.4299 39.0615 17.1756C39.8072 17.9089 40.18 19.0151 40.18 20.4941V26.2362H37.2717V20.9415C37.2717 20.1461 37.1039 19.5557 36.7683 19.1704C36.4452 18.7727 35.9791 18.5739 35.3701 18.5739C34.6865 18.5739 34.1459 18.7976 33.7481 19.245C33.3504 19.68 33.1516 20.3325 33.1516 21.2025V26.2362H30.2432V20.9415C30.2432 19.3631 29.6093 18.5739 28.3416 18.5739C27.6705 18.5739 27.136 18.7976 26.7383 19.245C26.3406 19.68 26.1417 20.3325 26.1417 21.2025V26.2362H23.2334V16.2062H26.0112V17.362C26.3841 16.9395 26.8377 16.6163 27.3722 16.3926C27.919 16.1689 28.5156 16.057 29.1619 16.057C29.8704 16.057 30.5104 16.2 31.0822 16.4858C31.6539 16.7593 32.1137 17.1632 32.4618 17.6976C32.8719 17.1756 33.3877 16.7717 34.0091 16.4858C34.643 16.2 35.3328 16.057 36.0785 16.057Z" fill="#29292E"/>
<path d="M51.9754 21.2585C51.9754 21.2958 51.9567 21.5568 51.9194 22.0415H44.3317C44.4684 22.6629 44.7915 23.1539 45.3011 23.5143C45.8107 23.8747 46.4445 24.055 47.2027 24.055C47.7247 24.055 48.1846 23.9804 48.5823 23.8312C48.9925 23.6697 49.3715 23.4211 49.7195 23.0855L51.2669 24.7634C50.3223 25.8447 48.9427 26.3854 47.1281 26.3854C45.9971 26.3854 44.9966 26.1679 44.1266 25.7328C43.2566 25.2854 42.5854 24.6702 42.1131 23.8872C41.6408 23.1042 41.4047 22.2155 41.4047 21.2212C41.4047 20.2393 41.6346 19.3569 42.0945 18.5739C42.5668 17.7784 43.2068 17.1632 44.0147 16.7282C44.835 16.2807 45.7485 16.057 46.7553 16.057C47.7371 16.057 48.6258 16.2683 49.4212 16.6909C50.2167 17.1135 50.8381 17.7225 51.2856 18.5179C51.7454 19.3009 51.9754 20.2145 51.9754 21.2585ZM46.7739 18.2569C46.1152 18.2569 45.5621 18.4434 45.1147 18.8162C44.6672 19.1891 44.3938 19.6987 44.2944 20.345H49.2348C49.1354 19.7111 48.862 19.2077 48.4145 18.8349C47.9671 18.4496 47.4202 18.2569 46.7739 18.2569Z" fill="#29292E"/>
<path d="M52.723 10.3894V5.72864C52.723 3.66937 54.3924 2 56.4517 2H96.5346C98.5938 2 100.263 3.66937 100.263 5.72864V31.8291C100.263 33.8884 98.5938 35.5578 96.5346 35.5578H90.0094L92.1901 45.7343C92.3807 46.6238 91.3148 47.2316 90.6464 46.6146L80.6878 37.4221H56.4517C54.3924 37.4221 52.723 35.7527 52.723 33.6935V31.8291" stroke="url(#paint1_linear_12502_1592)" stroke-width="2.79648"/>
<defs>
<linearGradient id="paint0_linear_12502_1592" x1="53" y1="5" x2="105.5" y2="38.5" gradientUnits="userSpaceOnUse">
<stop stop-color="#0CFFA7"/>
<stop offset="1" stop-color="#030303"/>
</linearGradient>
<linearGradient id="paint1_linear_12502_1592" x1="52.723" y1="2" x2="91.8738" y2="50.4723" gradientUnits="userSpaceOnUse">
<stop stop-color="#2CEAF7"/>
<stop offset="1" stop-color="#010001"/>
</linearGradient>
</defs>
</svg>
